<svg width="25" height="22" viewBox="0 0 25 22" fill="none" xmlns="http://www.w3.org/2000/svg">
<path d="M16.25 14.6667H18.125C18.4375 14.6667 18.75 14.3 18.75 13.9333V6.23333C18.75 5.86667 18.4375 5.5 18.125 5.5H16.25C15.9375 5.5 15.625 5.86667 15.625 6.23333V13.9333C15.625 14.3 15.9375 14.6667 16.25 14.6667ZM20.9375 14.6667H22.8125C23.125 14.6667 23.4375 14.3 23.4375 13.9333V0.733334C23.4375 0.366667 23.125 0 22.8125 0H20.9375C20.625 0 20.3125 0.366667 20.3125 0.733334V13.9333C20.3125 14.3 20.625 14.6667 20.9375 14.6667ZM6.875 14.6667H8.75C9.0625 14.6667 9.375 14.3 9.375 13.9333V9.9C9.375 9.53333 9.0625 9.16667 8.75 9.16667H6.875C6.5625 9.16667 6.25 9.53333 6.25 9.9V13.9333C6.25 14.3 6.5625 14.6667 6.875 14.6667ZM11.5625 14.6667H13.4375C13.75 14.6667 14.0625 14.3 14.0625 13.9333V2.56667C14.0625 2.2 13.75 1.83333 13.4375 1.83333H11.5625C11.25 1.83333 10.9375 2.2 10.9375 2.56667V13.9333C10.9375 14.3 11.25 14.6667 11.5625 14.6667ZM24.2188 18.3333H3.125V0.916667C3.125 0.410208 2.77539 0 2.34375 0H0.78125C0.349609 0 0 0.410208 0 0.916667V20.1667C0 21.179 0.699707 22 1.5625 22H24.2188C24.6504 22 25 21.5898 25 21.0833V19.25C25 18.7435 24.6504 18.3333 24.2188 18.3333Z" fill="#00A7E1"/>
</svg>
